:SAMPLES-PER-SECOND 30
:FULLY-SPECIFIED
:DEGREES
123
root  18.3389 18.6121 2.60669 -27.2829 85.7838 -70.6022
RightUpLeg  -22.934 12.9022 11.4065
RightLeg  88.7583 10.9597 7.00983
RightFoot  -4.31282 0.164765 -2.11896
RightToes  1.16415e-010 -3.18055e-015 8.94531e-016
Spine  54.718 2.48308 2.97986
Spine1  -17.3957 4.25418 -16.3498
HEad  -35.5206 -7.65335 19.9231
LeftShoulder1  0 -2.69403e-036 -1.28585e-037
LeftArm  40.1604 -32.0123 -102.241
LeftForeArm  3.30662 -22.5369 14.0458
LeftHand  -3.30947 -0.362684 42.4448
RightShoulder  -2.48481e-017 0 -8.08114e-019
RightArm  -10.2179 47.2244 59.9283
RightForeArm  -2.66963 3.76294 -6.12566
RightHand  4.75326 -17.6531 -28.5801
LeftUpLeg  -66.2606 1.32081 9.53048
LeftLeg  125.3 -0.422245 -18.9939
LeftFoot  17.5419 -2.01509 7.44583
LeftToes  4.502e-010 -1.85808e-011 5.37561e-011
124
root  19.3342 18.3967 2.65006 -14.4664 85.2703 -56.7347
RightUpLeg  -18.5448 12.2493 11.2014
RightLeg  85.0408 11.1587 4.18103
RightFoot  -4.26952 0.12681 -1.61908
RightToes  1.16415e-010 -3.18055e-015 8.94531e-016
Spine  53.766 2.46317 0.92453
Spine1  -15.3539 3.46933 -16.3588
HEad  -34.3234 -6.51886 20.0125
LeftShoulder1  0 -2.69403e-036 -1.28585e-037
LeftArm  41.7546 -29.706 -97.777
LeftForeArm  0.0833496 -23.5301 16.5304
LeftHand  -3.38702 -0.412678 43.0019
RightShoulder  -2.48481e-017 0 -8.08114e-019
RightArm  -9.92613 45.4708 65.3149
RightForeArm  -1.45596 5.19563 -6.94635
RightHand  5.09942 -17.9545 -30.5819
LeftUpLeg  -67.6427 0.585106 8.46377
LeftLeg  125.453 -0.878858 -18.2915
LeftFoot  21.3819 -0.442129 1.74965
LeftToes  4.502e-010 -1.85808e-011 5.37561e-011
125
root  20.3501 18.1739 2.63936 1.47958 84.7824 -40.6874
RightUpLeg  -15.5464 11.6929 9.8015
RightLeg  81.5654 11.124 2.25612
RightFoot  -3.77378 0.117233 -1.42108
RightToes  1.16415e-010 -3.18055e-015 8.94531e-016
Spine  52.083 2.31534 -1.16984
Spine1  -13.7153 2.55232 -16.6346
HEad  -33.0595 -5.93565 19.9964
LeftShoulder1  0 -2.69403e-036 -1.28585e-037
LeftArm  40.8325 -26.3355 -93.7478
LeftForeArm  -0.461153 -24.25 18.1589
LeftHand  -3.47796 -0.473131 43.6302
RightShoulder  -2.48481e-017 0 -8.08114e-019
RightArm  -7.92058 44.1156 71.0881
RightForeArm  -0.142761 5.62657 -6.57222
RightHand  5.5302 -18.4484 -32.4865
LeftUpLeg  -67.5295 -0.611336 6.72676
LeftLeg  124.624 -1.55474 -17.8835
LeftFoot  25.2151 1.48165 -4.0148
LeftToes  4.502e-010 -1.85808e-011 5.37561e-011
126
root  21.3965 17.9962 2.58546 23.1892 84.2833 -20.0067
RightUpLeg  -14.0719 11.1398 7.19469
RightLeg  78.131 11.0435 1.35997
RightFoot  -2.20956 0.15835 -1.64369
RightToes  1.16415e-010 -3.18055e-015 8.94531e-016
Spine  49.837 1.85791 -3.61236
Spine1  -12.6253 1.14303 -16.4902
HEad  -31.7153 -4.88578 19.7696
LeftShoulder1  0 -2.69403e-036 -1.28585e-037
LeftArm  36.9569 -21.4712 -89.8652
LeftForeArm  1.51309 -25.8619 19.5907
LeftHand  -3.57133 -0.554284 44.147
RightShoulder  -2.48481e-017 0 -8.08114e-019
RightArm  -4.8616 42.8873 77.3965
RightForeArm  1.60779 5.1091 -5.80276
RightHand  6.0908 -19.1293 -34.5843
LeftUpLeg  -66.1754 -2.31401 3.76782
LeftLeg  122.795 -2.02118 -18.3551
LeftFoot  27.4272 1.64324 -4.21631
LeftToes  4.502e-010 -1.85808e-011 5.37561e-011
127
root  22.4915 17.9413 2.53765 54.786 83.5017 10.1161
RightUpLeg  -13.21 9.41688 3.44092
RightLeg  74.356 11.0347 1.22018
RightFoot  0.165827 0.233426 -1.9947
RightToes  1.16415e-010 -3.18055e-015 8.94531e-016
Spine  48.0455 0.94773 -7.09316
Spine1  -12.115 -1.3652 -14.1454
HEad  -30.4328 -2.4161 18.7809
LeftShoulder1  0 -2.69403e-036 -1.28585e-037
LeftArm  30.6469 -15.4914 -85.8677
LeftForeArm  5.02239 -29.2701 21.2404
LeftHand  -3.57854 -0.608659 43.8997
RightShoulder  -2.48481e-017 0 -8.08114e-019
RightArm  -1.57285 41.4331 83.9371
RightForeArm  3.80674 5.04771 -5.4456
RightHand  6.60232 -19.6906 -36.4828
LeftUpLeg  -63.8846 -4.71607 -0.75016
LeftLeg  120.116 -3.47914 -17.7299
LeftFoot  27.4601 0.769954 -1.82291
LeftToes  4.502e-010 -1.85808e-011 5.37561e-011
128
root  23.5964 17.933 2.48495 87.7142 81.5533 41.7692
RightUpLeg  -12.1899 5.95802 -0.675456
RightLeg  70.5719 11.1944 1.66648
RightFoot  3.23848 0.308885 -2.13372
RightToes  1.16415e-010 -3.18055e-015 8.94531e-016
Spine  47.3727 -0.566948 -10.5814
Spine1  -12.3447 -4.76612 -9.69856
HEad  -29.5026 0.698486 17.1577
LeftShoulder1  0 -2.69403e-036 -1.28585e-037
LeftArm  24.7474 -9.66217 -82.4764
LeftForeArm  7.39011 -33.85 23.4106
LeftHand  -3.38981 -0.54474 42.2147
RightShoulder  -2.48481e-017 0 -8.08114e-019
RightArm  0.927191 39.4827 89.4807
RightForeArm  6.64158 6.14344 -5.38239
RightHand  6.98221 -20.0604 -37.9201
LeftUpLeg  -60.8896 -7.61555 -5.837
LeftLeg  117.161 -6.18291 -14.6616
LeftFoot  25.6363 0.400687 -0.907212
LeftToes  4.502e-010 -1.85808e-011 5.37561e-011
